<?xml version="1.0" encoding="UTF-8"?>
<svg width="305px" height="424px" viewBox="0 0 305 424" version="1.1" xmlns="http://www.w3.org/2000/svg" xmlns:xlink="http://www.w3.org/1999/xlink">
    <!-- Generator: Sketch 52.5 (67469) - http://www.bohemiancoding.com/sketch -->
    <title>Brownie</title>
    <desc>Created with Sketch.</desc>
    <defs>
        <linearGradient x1="26.7300593%" y1="34.5659664%" x2="88.5223026%" y2="55.0082333%" id="linearGradient-1">
            <stop stop-color="#F1D6A4" offset="0%"></stop>
            <stop stop-color="#C9AD83" offset="100%"></stop>
        </linearGradient>
        <linearGradient x1="72.1827064%" y1="35.5526406%" x2="13.2859812%" y2="58.1034584%" id="linearGradient-2">
            <stop stop-color="#F1D6A4" offset="0%"></stop>
            <stop stop-color="#C9AD83" offset="100%"></stop>
        </linearGradient>
        <radialGradient cx="48.3299458%" cy="51.087202%" fx="48.3299458%" fy="51.087202%" r="76.1934059%" gradientTransform="translate(0.483299,0.510872),scale(0.908159,1.000000),rotate(90.000000),scale(1.000000,0.993585),translate(-0.483299,-0.510872)" id="radialGradient-3">
            <stop stop-color="#C9AD83" offset="0%"></stop>
            <stop stop-color="#F1D6A4" offset="100%"></stop>
        </radialGradient>
        <linearGradient x1="13.0403904%" y1="31.2029505%" x2="88.6995589%" y2="60.1318873%" id="linearGradient-4">
            <stop stop-color="#F1D6A4" offset="0%"></stop>
            <stop stop-color="#C9AD83" offset="100%"></stop>
        </linearGradient>
        <radialGradient cx="50%" cy="50%" fx="50%" fy="50%" r="71.7087166%" gradientTransform="translate(0.500000,0.500000),scale(0.890252,1.000000),rotate(90.000000),scale(1.000000,0.934836),translate(-0.500000,-0.500000)" id="radialGradient-5">
            <stop stop-color="#C9AD83" offset="0%"></stop>
            <stop stop-color="#F1D6A4" offset="100%"></stop>
        </radialGradient>
        <linearGradient x1="91.0621929%" y1="29.7702387%" x2="7.44881723%" y2="66.7908707%" id="linearGradient-6">
            <stop stop-color="#F1D6A4" offset="0%"></stop>
            <stop stop-color="#C9AD83" offset="100%"></stop>
        </linearGradient>
        <linearGradient x1="18.7935415%" y1="24.7768109%" x2="59.9840689%" y2="50%" id="linearGradient-7">
            <stop stop-color="#F7D39E" offset="0%"></stop>
            <stop stop-color="#C9AD83" offset="100%"></stop>
        </linearGradient>
        <linearGradient x1="85.9415745%" y1="24.2106333%" x2="38.0212913%" y2="50%" id="linearGradient-8">
            <stop stop-color="#F2D5A1" offset="0%"></stop>
            <stop stop-color="#C9AD83" offset="100%"></stop>
        </linearGradient>
    </defs>
    <g id="Symbols" stroke="none" stroke-width="1" fill="none" fill-rule="evenodd">
        <g id="Icon" transform="translate(-107.000000, -46.000000)">
            <g id="Group">
                <g id="Brownie" transform="translate(109.000000, 48.000000)">
                    <path d="" id="Path" stroke="#979797" stroke-width="1"></path>
                    <polygon id="Path-3" stroke="#333333" stroke-width="0.3" fill="url(#linearGradient-1)" fill-rule="evenodd" points="50.211073 136.467625 45.3213829 145.081389 40.3747457 152.104398 36.6770632 159.156046 31.8365548 167.616852 21.160257 185.692477 13.7927184 200.285236 8.89785135 215.08823 6.54813396 230.553821 5.12833777 245.079539 5.12833777 262.937119 5.12833777 271.792359 5.78027591 276.271479 6.54813396 278.726642 9.62852272 284.467302 13.7927184 290.151117 19.4188388 296.048753 26.0389459 299.611677 31.8365548 300.929712 35.0857784 300.929712 36.6770632 300.929712 43.77022 296.965193 50.211073 290.151117 54.1591936 282.356162 56.1122222 275.704155 57.5999667 268.490438 58.6392524 260.740394 60.8155398 253.850165 62.9581766 240.059057 64.9067156 227.572413 66.7962118 215.08823 68.1338967 204.729454 68.1338967 192.469453 68.1338967 183.30179 68.1338967 170.694689 68.1338967 164.173522 66.8348369 162.465427 64.9075621 159.931312 62.9158148 157.312423 60.8155398 154.550835 59.5185703 152.807689 57.5999667 150.229057 54.5424593 145.778253 52.5606013 141.451377"></polygon>
                    <polyline id="Path-4" stroke="#555555" stroke-width="0.1" points="63.3949762 182.096577 57.1159049 188.913764 51.8243243 197.069397 45.9519866 207.138285 42.3951039 216.974843 40.7017885 227.469516 39.1511165 239.350767 39.1511165 248.076581 40.7017885 255.130727 40.7017885 264.681268 39.1511165 275.542487 36.1298368 281.330385 33.9929464 287.967077 29.8001501 293.182942 25.0174543 298.759799"></polyline>
                    <polygon id="Path-5" stroke="#333333" stroke-width="0.3" fill="#FFFFFF" fill-rule="evenodd" points="42.2616633 256.929206 48.650248 258.892445 55.0995711 261.282394 58.1991263 262.086798 57.576045 270.950321 56.5232445 277.394496 54.0550856 282.639291 51.6725157 287.087779 48.650248 291.366296 44.2685357 296.424311 37.557228 300.608816 33.6126619 300.962725 29.9161672 300.608816 24.6574563 298.853819 26.4806611 296.424311 30.7406887 291.366296 34.8273934 285.601006 37.557228 278.769011 39.6853848 272.272976 40.7310135 263.843913 40.7310135 256.929206"></polygon>
                    <polygon id="Path-6" stroke="#333333" stroke-width="0.3" fill="url(#linearGradient-2)" fill-rule="evenodd" points="285.224983 215.424961 285.9311 217.502035 291.502051 232.121679 294.886841 246.055029 296.110808 256.751487 296.110808 264.999851 296.110808 273.510582 294.886841 280.679675 291.502051 288.810316 285.55244 296.375403 278.476406 299.831666 271.363561 302.726078 261.782525 301.41355 256.70718 298.340494 252.592607 293.636496 248.662091 288.810316 246.554649 283.148302 244.666234 278.227709 244.666234 272.668439 242.883652 263.010525 240.327753 256.751487 238.709261 251.09225 236.564088 243.865939 233.982702 232.121679 232.031709 225.265616 228.545546 212.467076 230.168141 220.045747 227.548104 204.935452 227.548104 198.185694 227.548104 191.890556 227.548104 186.485864 227.548104 184.375452 227.548104 179.496178 227.548104 174.657303 227.548104 170.526637 227.548104 169.142819 232.031709 165.674534 235.732866 160.708096 240.327753 154.097046 244.666234 146.490062 248.662091 141.067234 251.143265 144.59605 254.911423 151.391774 258.342323 158.471498 261.782525 163.979841 265.193317 171.508869 269.009864 179.496178 273.389616 188.401938 276.646245 195.79301 279.596142 202.71588 282.251989 208.5 284.19103 212.467076"></polygon>
                    <polyline id="Path-7" stroke="#555555" stroke-width="0.1" points="229.237738 183.635882 238.387163 192.720837 245.413502 203.145163 251.397163 216.510182 257.947717 232.455828 262.150637 248.849474 264.650117 266.46864 266.814616 285.003243 270.430397 298.434907 271.849853 302.299795"></polyline>
                    <polygon id="Path-8" stroke="#333333" stroke-width="0.3" fill="#FFFFFF" fill-rule="evenodd" points="262.969761 258.33985 264.068504 262.096554 265.717547 271.39324 267.063894 278.999923 268.850148 286.553767 269.973641 293.144807 270.719768 297.888047 271.942932 302.697021 268.034502 302.697021 262.073333 301.811682 256.184172 297.888047 251.915281 293.795687 249.11322 289.034654 246.850119 283.245705 245.000516 276.918828 244.054248 271.39324 242.833036 264.257061 251.915281 262.905005 258.570747 260.272543 262.073333 258.33985"></polygon>
                    <polygon id="Path-9" stroke="#333333" stroke-width="0.3" fill="url(#radialGradient-3)" fill-rule="evenodd" points="50.1564511 136.490547 54.841981 146.813389 62.8643716 157.703382 67.8088547 163.78805 72.6815496 169.071476 88.3584336 181.783097 104.113539 187.305039 118.844033 191.013135 138.274671 193.715749 152.387992 193.715749 168.831615 192.201905 186.093551 189.479407 201.332053 184.297236 216.547347 176.526574 230.891034 166.856475 239.479023 155.221231 249.391613 139.560598 252.983455 130.241653 255.577608 117.865885 257.43501 104.816742 257.43501 92.5950083 256.74555 84.1535853 254.244143 78.5601114 251.052888 70.9517677 247.863527 63.8189455 243.911205 55.8002359 240.116476 49.7003774 234.864391 43.1970115 228.791385 35.023605 219.97793 27.6713113 213.220379 22.1182263 202.998817 14.7720291 193.665988 10.6283623 184.891173 7.00441618 177.084267 4.4766842 167.244564 2.01144063 160.30366 1.12212401 150.169229 1.12212401 143.690496 1.12212401 137.267831 2.01144063 130.913733 3.68529148 122.556767 6.18825672 115.991662 8.59215498 108.367729 11.6266526 99.6523912 15.2730794 92.4440343 19.4540868 85.7561884 23.8423727 81.1572052 27.6713113 76.518445 32.126658 70.2003361 37.6454506 65.5505898 43.1970115 62.0634695 48.5538677 57.9535545 55.1185789 55.368047 61.63871 52.183611 69.1041686 49.603786 74.6854496 47.7501761 81.1053706 46.4913276 86.9491791 45.3646903 95.8210078 45.3646903 103.577571 45.3646903 111.32537 45.3646903 118.507345 47.0322953 127.636367 48.8180948 132.798899"></polygon>
                    <polygon id="Path-13" stroke="#333333" stroke-width="0.3" fill="#FFFFFF" fill-rule="evenodd" points="105.508625 76.7702255 100.138875 82.5506712 97.7165999 89.0824192 95.1593716 96.3084086 93.606124 103.551689 93.606124 113.635913 95.1593716 123.926766 97.7165999 132.354493 102.027356 143.302412 108.41398 150.465289 115.608602 157.880617 125.016624 163.53743 134.468484 167.588757 146.691605 169.082716 155.393918 169.082716 167.159747 165.690184 176.345139 160.597927 187.027047 151.756941 193.494471 143.302412 198.699182 132.354493 200.069341 118.13681 200.069341 109.29323 197.486325 99.4407082 195.677785 92.6219263 190.377661 82.5506712 185.148021 76.7702255 178.653951 69.8433737 170.244752 65.5499705 159.951371 62.3770367 146.691605 60.5830754 138.302177 60.5830754 127.970975 63.7923208 119.682976 68.3070512 113.647917 71.0174457 109.686148 73.8238062"></polygon>
                    <path d="M123.942538,92.2508316 L127.330088,90.4182441 L135.765989,86.7586958 L143.916089,85.2913593 L150.697246,84.578631 L157.51129,84.4731725 L162.097932,85.6114799 C165.643362,87.8733933 167.522605,89.3041216 167.735662,89.9036648 C168.526945,92.1303446 168.467228,95.1518679 168.369974,95.9387405 C168.23344,97.0434164 167.375102,98.7613915 165.79496,101.092666 L163.320762,104.950212 L158.045563,112.174742 L154.01025,116.099754 L148.887203,118.081568 L145.46073,118.079501 L140.626717,116.091683 L135.782561,114.392603 L129.357348,110.920334 L124.817862,106.31202 L121.77156,100.150945 C121.166784,98.4700124 120.911867,97.1679971 121.006808,96.2448993 C121.101749,95.3218015 122.080326,93.9904456 123.942538,92.2508316 Z" id="Path-10" stroke="#333333" stroke-width="1" fill="#333333" fill-rule="evenodd" transform="translate(144.706448, 101.277370) rotate(6.000000) translate(-144.706448, -101.277370) "></path>
                    <polyline id="Path-11" stroke="#333333" stroke-width="1" points="147.517994 118.283654 147.517994 125.532122 147.517994 131.243403 147.517994 134.061867 142.552601 137.214052 135.714702 140.35932 129.442401 141.638003 125.574324 141.638003"></polyline>
                    <polyline id="Path-12" stroke="#333333" stroke-width="1" points="147.5 134.322115 154.736239 138.335401 161.836308 140.063656 166.535591 141.470294 169.016318 141.470294"></polyline>
                    <polygon id="Path-15" fill="#000000" fill-rule="evenodd" points="194.956603 76.9483247 194.043056 78.8511989 193.667245 81.8572943 194.956603 85.3630837 197.324726 88.2161304 202.608518 88.2161304 205.715873 85.3630837 206.815266 81.8572943 206.815266 79.701575 205.715873 76.9483247 204.289539 75.5936226 202.608518 74.7004697 200.241255 74.3223206 198.095405 74.7004697 196.393711 75.3145932"></polygon>
                    <polygon id="Path-15" fill="#000000" fill-rule="evenodd" points="84.921003 78.4305474 83.6316442 83.339517 84.921003 86.8453063 87.2891254 89.6983531 92.5729178 89.6983531 95.0831742 86.8453063 96.0911013 83.339517 95.8802618 80.8202072 95.8802618 78.9907975 94.6202769 77.247713 92.5729178 76.1826923 90.205655 75.4908027 86.8334988 76.1826923"></polygon>
                    <polygon id="Path-16" stroke="#555555" stroke-width="0.1" points="72.3709806 33.8978132 75.394364 37.0034627 83.3241835 46.1569775 93.3600333 57.5834378 101.17924 66.7751246 107.292425 73.5130198"></polygon>
                    <polyline id="Path-17" stroke="#555555" stroke-width="0.1" points="231.293777 38.4342732 215.96472 45.8383555 205.738217 53.4184407 198.348447 60.8343479 191.217257 68.9040358 185.107494 75.1089836"></polyline>
                    <polyline id="Path-18" stroke="#555555" stroke-width="0.1" points="147.019825 170.422597 147.019825 176.618595 147.019825 184.262993 147.019825 190.427223 147.019825 193.298138"></polyline>
                    <polygon id="Path-14" stroke="#333333" stroke-width="0.3" fill="url(#linearGradient-4)" fill-rule="evenodd" points="21.5369512 297.331728 16.951667 314.335816 9.19501351 334.88268 4.45735085 350.151337 1.07627686 367.104344 1.07627686 377.978187 1.07627686 381.852563 4.45735085 395.973302 11.1846361 403.81556 23.6037221 411.380989 32.572548 414.361836 39.9336467 415.778257 47.469395 415.778257 54.1833839 415.0139 61.1532443 413.614829 68.7522417 411.380989 75.6105732 408.838322 79.5230845 407.007906 81.832691 405.393504 84.3304491 402.766807 87.4000868 398.76866 90.989114 389.756338 94.9071965 379.674841 98.4460702 369.29929 100.367802 357.706307 102.736485 351.892988 105.739682 346.688494 108.909877 342.303139 102.736485 338.298903 94.9071965 333.382916 86.617498 328.10748 80.1071262 323.228772 71.0624921 315.466773 64.1686177 310.598609 57.044991 305.836322 50.2450266 301.271346 44.032184 296.470077 43.3569774 297.020453 39.1538922 299.363513 32.572548 300.841893 25.9930364 299.363513"></polygon>
                    <polygon id="Path-19" stroke="#333333" stroke-width="0.3" fill="url(#radialGradient-5)" fill-rule="evenodd" points="46.003949 298.860461 58.5190604 306.968474 69.6531181 314.428093 82.7602845 325.931875 98.926809 335.86696 114.109837 345.977986 122.993027 349.116017 133.483734 351.637601 148.159112 351.637601 159.389959 349.116017 168.971555 345.977986 179.06871 340.17355 195.064786 330.653963 213.935925 319.776429 233.708602 309.323366 246.63595 300.548502 254.375478 296.569547 250.37627 290.972984 247.331957 284.909156 245.142242 278.173121 243.809825 269.18269 242.19897 260.479683 239.651373 253.616033 236.40768 243.44216 234.349857 233.896664 232.001641 225.429104 229.44286 216.266063 228.385654 210.596461 227.520014 201.033376 227.520014 192.564265 227.520014 181.641384 227.520014 174.683477 227.520014 169.259274 222.077737 172.984535 216.562957 176.406081 210.824501 179.627477 203.899017 182.891929 195.770695 186.233959 189.771154 188.140032 185.735338 189.515478 176.944856 190.877735 167.612152 192.564265 154.905405 193.548332 148.159112 193.548332 141.241864 193.548332 136.770264 193.548332 130.896831 192.564265 121.977542 191.498353 111.078718 188.930933 101.889089 186.233959 92.8679895 182.891929 85.347064 179.049139 79.7011636 174.683477 75.0899593 171.028036 70.8077135 166.878427 68.2003411 164.310355 68.2003411 169.259274 68.2003411 174.683477 68.2003411 180.609994 68.2003411 187.363096 67.1782734 198.638638 66.2009787 212.940671 64.099736 230.100032 61.9718812 243.44216 60.1442769 252.518237 58.5190604 260.479683 57.7330577 265.033469 57.7330577 270.25985 56.9139394 275.603761 54.4033648 282.012033 51.3401554 287.322585 46.9084665 293.429734 43.9551035 296.569547"></polygon>
                    <polygon id="Path-20" stroke="#333333" stroke-width="0.3" fill="url(#linearGradient-6)" fill-rule="evenodd" points="276.644817 302.333742 280.314579 321.197484 283.669964 335.948164 287.858386 350.805883 291.282274 368.754245 291.282274 380.187898 289.791476 391.882385 286.818737 396.124163 281.387792 399.996226 273.66771 404.101729 260.439487 408.992877 248.265296 412.839528 226.788225 413.514662 215.477225 408.992877 203.291169 402.707013 193.766913 391.882385 188.11915 382.136774 182.446921 366.811521 179.397349 354.629814 176.362456 341.810787 183.373723 337.612283 192.492993 332.038315 203.291169 325.852231 215.477225 318.709872 226.788225 312.680132 237.339268 306.686417 247.012444 300.309029 254.466812 296.731441 259.748516 300.309029 265.81605 302.333742 271.488211 302.333742 276.644817 300.721717"></polygon>
                    <polyline id="Path-21" stroke="#555555" stroke-width="0.1" points="145.506757 303.740033 145.506757 323.718474 145.506757 339.383304 145.506757 350.393716"></polyline>
                    <polyline id="Path-22" stroke="#555555" stroke-width="0.1" points="38.1690072 301.413439 25.9315744 318.806912 20.3437503 332.714801 14.9614328 352.428716 14.9614328 367.630934 16.9749088 373.88973"></polyline>
                    <polygon id="Path-23" stroke="#333333" stroke-width="0.3" fill="#FFFFFF" fill-rule="evenodd" points="15.030917 406.066335 11.4416181 401.698266 9.78266432 396.854962 9.78266432 389.767489 9.78266432 385.031298 11.4416181 379.161434 15.030917 373.371888 21.6359575 369.902827 30.9494628 369.902827 39.9206209 369.902827 50.6369275 371.929448 61.6786809 376.815215 72.3675181 383.007026 76.8548339 387.94893 78.3633472 396.854962 78.3633472 401.698266 75.4729921 407.335411 68.6932303 410.423675 58.5492679 414.36854 52.7476902 415.535319 45.1803973 415.647658 37.6964626 415.647658 30.9494628 414.36854 21.6359575 410.423675"></polygon>
                    <polygon id="Path-24" stroke="#333333" stroke-width="0.3" fill="#FFFFFF" fill-rule="evenodd" points="287.511643 385.268342 285.070787 376.613784 280.077287 367.927062 272.704648 363.112618 264.897794 363.112618 255.626427 365.018682 242.611551 371.185193 229.225044 379.650398 218.730012 389.846236 216.428414 394.007452 215.874949 397.116983 216.428414 400.151987 217.283223 402.195283 218.730012 405.068289 220.664659 408.085334 223.177937 412.004744 231.201037 414.818589 238.968839 414.818589 251.58639 412.004744 264.897794 407.919127 275.59093 403.412471 281.365345 400.151987 285.070787 395.879545 287.511643 388.965604"></polygon>
                    <polygon id="Path-15" fill="#000000" fill-rule="evenodd" transform="translate(37.318857, 378.755237) rotate(-83.000000) translate(-37.318857, -378.755237) " points="34.7373171 375.784749 34.0604755 379.28877 34.7331027 381.790395 35.9702906 383.825761 38.7339122 383.823833 40.0482993 381.786686 40.5772388 379.284223 40.4682236 377.486259 40.4691398 376.180602 39.8109934 374.937016 38.7406812 374.177654 37.5028606 373.684713 35.7387499 374.179749"></polygon>
                    <polygon id="Path-15" fill="#000000" fill-rule="evenodd" transform="translate(255.164639, 374.258337) rotate(60.000000) translate(-255.164639, -374.258337) " points="252.575345 371.273947 251.910678 374.780592 252.590431 377.287786 253.832483 379.329888 256.592356 379.336791 257.898418 377.301063 258.418601 374.796871 258.303957 372.996102 258.300677 371.688664 257.639427 370.441275 256.568124 369.677453 255.330396 369.179883 253.570265 369.669955"></polygon>
                    <polygon id="Path-15" fill="#000000" fill-rule="evenodd" transform="translate(271.110585, 374.258337) rotate(60.000000) translate(-271.110585, -374.258337) " points="268.521291 371.273947 267.856624 374.780592 268.536377 377.287786 269.778429 379.329888 272.538302 379.336791 273.844364 377.301063 274.364547 374.796871 274.249903 372.996102 274.246623 371.688664 273.585372 370.441275 272.51407 369.677453 271.276342 369.179883 269.516211 369.669955"></polygon>
                    <polygon id="Path-15" fill="#000000" fill-rule="evenodd" transform="translate(273.103829, 396.311222) rotate(60.000000) translate(-273.103829, -396.311222) " points="270.514534 393.326832 269.849867 396.833477 270.529621 399.34067 271.771672 401.382773 274.531545 401.389676 275.837607 399.353948 276.35779 396.849756 276.243146 395.048987 276.239866 393.741549 275.578616 392.494159 274.507313 391.730338 273.269585 391.232767 271.509454 391.722839"></polygon>
                    <polygon id="Path-15" fill="#000000" fill-rule="evenodd" transform="translate(277.090315, 384.282375) rotate(60.000000) translate(-277.090315, -384.282375) " points="274.501021 381.297986 273.836354 384.804631 274.516107 387.311824 275.758159 389.353926 278.518031 389.36083 279.824094 387.325101 280.344277 384.82091 280.229633 383.02014 280.226353 381.712702 279.565102 380.465313 278.4938 379.701492 277.256072 379.203921 275.495941 379.693993"></polygon>
                    <path d="M51.2867311,393.411823 L50.6232014,394.660707 L47.9515019,395.389978 L46.4166423,396.700382 C46.4636728,397.718704 46.5650178,398.474163 46.7206772,398.966759 C46.8763367,399.459356 47.4569824,400.175652 48.4626144,401.115649 L53.1412668,404.794977 L57.3521787,405.217033 L64.2254948,404.031582 L68.5509039,401.101631 L70.2024184,398.25036 L69.0962838,396.14708 L67.8331563,395.256045 C67.2698221,394.559596 66.9607738,394.100525 66.9060111,393.87883 C66.7403257,393.208091 66.6575669,392.753252 66.6577346,392.514313 C66.6578908,392.291706 66.5531385,391.732331 66.3434777,390.836191 C66.2588423,390.474439 65.6880781,389.661874 64.6311853,388.398496 L62.0589499,386.523842 L57.7338629,386.82172 L53.5638413,388.033332 L52.2983228,390.699741 L51.6199841,392.223277 L51.2867311,393.411823 Z" id="Path-15" fill="#000000" fill-rule="evenodd" transform="translate(58.309530, 395.870438) rotate(-83.000000) translate(-58.309530, -395.870438) "></path>
                    <path d="M232.525687,393.629272 L231.867529,394.878079 L229.202886,395.599599 L228.037649,397.327134 C227.846353,398.067349 227.829236,398.684443 227.986299,399.178417 C228.143361,399.672391 228.725439,400.391885 229.732532,401.336901 L234.415629,405.038378 L238.620746,405.47537 L245.47825,404.311054 L249.786305,401.390625 L251.42532,398.539992 L250.313953,396.429341 L248.430725,395.309646 C248.278828,394.758663 248.17517,394.37204 248.119749,394.149778 C247.952075,393.477319 247.867916,393.021414 247.867273,392.782062 C247.866675,392.55907 247.760206,391.998375 247.547867,391.099976 C247.46215,390.737313 246.889611,389.921416 245.830249,388.652287 L243.256072,386.765712 L238.939416,387.049516 L234.780657,388.249157 C234.016699,389.264382 233.550012,389.956274 233.380595,390.324834 C233.211178,390.693394 233.03576,391.39838 232.854339,392.439794 L232.525687,393.629272 Z" id="Path-15" fill="#000000" fill-rule="evenodd" transform="translate(239.652699, 396.120541) rotate(56.000000) translate(-239.652699, -396.120541) "></path>
                    <polygon id="Path-15" fill="#000000" fill-rule="evenodd" transform="translate(23.366154, 382.764853) rotate(-83.000000) translate(-23.366154, -382.764853) " points="20.7846144 379.794365 20.1077728 383.298386 20.7804 385.800011 22.0175879 387.835377 24.7812095 387.833448 26.0955966 385.796302 26.6245361 383.293838 26.5155209 381.495874 26.5164371 380.190218 25.8582907 378.946631 24.7879785 378.187269 23.5501579 377.694329 21.7860472 378.189364"></polygon>
                    <polygon id="Path-15" fill="#000000" fill-rule="evenodd" transform="translate(21.372911, 394.793699) rotate(-83.000000) translate(-21.372911, -394.793699) " points="18.7913711 391.823211 18.1145296 395.327232 18.7871568 397.828857 20.0243447 399.864223 22.7879663 399.862294 24.1023534 397.825148 24.6312929 395.322685 24.5222776 393.52472 24.5231938 392.219064 23.8650475 390.975477 22.7947353 390.216115 21.5569146 389.723175 19.792804 390.21821"></polygon>
                    <polygon id="Path-15" fill="#000000" fill-rule="evenodd" transform="translate(29.345884, 404.817737) rotate(-83.000000) translate(-29.345884, -404.817737) " points="26.7643441 401.847249 26.0875025 405.35127 26.7601298 407.852895 27.9973177 409.888261 30.7609392 409.886333 32.0753264 407.849186 32.6042658 405.346723 32.4952506 403.548759 32.4961668 402.243102 31.8380205 400.999516 30.7677083 400.240154 29.5298876 399.747213 27.7657769 400.242249"></polygon>
                    <path d="M259.049531,299.656498 L260.772294,303.417258 L262.604367,307.416641 L263.007171,308.295956 L264.268132,311.048613 L265.689305,314.151008 L267.117163,318.531314 L268.532313,322.872636 L269.761845,327.822866 L271.092266,333.17929 L272.413522,337.657712 L273.2923,340.636348 L274.125362,343.460024 L274.706063,346.587052 L275.316511,349.874266 L275.95728,353.324751 L276.411009,355.671972 C276.568016,356.476285 276.69906,357.042129 276.804142,357.369504 C276.909224,357.696879 277.006774,358.180701 277.09679,358.82097 L277.538376,360.50689 L278.375482,363.253887 L279.180115,366.112766 L280.090129,368.134767" id="Path-25" stroke="#555555" stroke-width="0.1"></path>
                    <polygon id="Path-26" stroke="#333333" stroke-width="0.3" fill="url(#linearGradient-7)" fill-rule="evenodd" points="73.8099685 34.1812495 65.553227 43.1043764 59.0537166 53.0189225 53.8175676 64.4391161 48.6988221 77.6217257 42.687104 71.5683687 39.040721 65.7345491 36.3001102 59.8601793 34.6283287 51.8465622 36.3001102 43.1043764 39.040721 35.9175494 44.0865267 30.3567677 51.7224291 27.8192274 57.9212803 27.8192274 65.553227 30.3567677 71.246257 33.0024418"></polygon>
                    <polygon id="Path-27" stroke="#333333" stroke-width="0.3" fill="url(#linearGradient-8)" fill-rule="evenodd" points="231.558524 39.1118977 242.258872 52.3436757 248.208699 64.4609687 252.539896 75.3239198 256.988409 84.6269611 262.323235 78.9328526 265.752443 72.2927555 267.491882 66.0127641 269.048167 57.487837 267.491882 48.8224063 263.873312 42.8598489 258.367332 37.2417856 250.303345 33.868658 242.258872 33.868658 235.11515 37.2417856"></polygon>
                    <polygon id="Path-28" fill="#FFFFFF" fill-rule="evenodd" points="200.283236 77.7522635 198.903485 78.1474381 197.892618 79.5418286 197.892618 81.6031592 199.073678 83.0055115 200.968757 82.6334264 201.821041 81.1323467 201.821041 79.5418286 201.36693 78.1474381"></polygon>
                    <polygon id="Path-28" fill="#FFFFFF" fill-rule="evenodd" points="90.0933203 79.5004181 88.7135698 79.8955927 87.7027027 81.2899832 87.7027027 83.3513137 88.8837628 84.7536661 90.7788418 84.3815809 91.631126 82.8805013 91.631126 81.2899832 91.1770142 79.8955927"></polygon>
                </g>
            </g>
        </g>
    </g>
</svg>