<?xml version="1.0" encoding="UTF-8"?>
<svg width="274px" height="383px" viewBox="0 0 274 383" version="1.1" xmlns="http://www.w3.org/2000/svg" xmlns:xlink="http://www.w3.org/1999/xlink">
    <!-- Generator: Sketch 52.5 (67469) - http://www.bohemiancoding.com/sketch -->
    <title>Group</title>
    <desc>Created with Sketch.</desc>
    <defs>
        <linearGradient x1="26.7300593%" y1="34.5659664%" x2="88.5223026%" y2="55.0082333%" id="linearGradient-1">
            <stop stop-color="#F1D6A4" offset="0%"></stop>
            <stop stop-color="#C9AD83" offset="100%"></stop>
        </linearGradient>
        <linearGradient x1="72.1827064%" y1="35.5526406%" x2="13.2859812%" y2="58.1034584%" id="linearGradient-2">
            <stop stop-color="#F1D6A4" offset="0%"></stop>
            <stop stop-color="#C9AD83" offset="100%"></stop>
        </linearGradient>
        <radialGradient cx="48.3299458%" cy="51.087202%" fx="48.3299458%" fy="51.087202%" r="76.1934059%" gradientTransform="translate(0.483299,0.510872),scale(0.909145,1.000000),rotate(90.000000),scale(1.000000,0.993585),translate(-0.483299,-0.510872)" id="radialGradient-3">
            <stop stop-color="#C9AD83" offset="0%"></stop>
            <stop stop-color="#F1D6A4" offset="100%"></stop>
        </radialGradient>
        <linearGradient x1="13.0403904%" y1="31.2029505%" x2="88.6995589%" y2="60.1318873%" id="linearGradient-4">
            <stop stop-color="#F1D6A4" offset="0%"></stop>
            <stop stop-color="#C9AD83" offset="100%"></stop>
        </linearGradient>
        <radialGradient cx="50%" cy="50%" fx="50%" fy="50%" r="71.7087166%" gradientTransform="translate(0.500000,0.500000),scale(0.891219,1.000000),rotate(90.000000),scale(1.000000,0.934836),translate(-0.500000,-0.500000)" id="radialGradient-5">
            <stop stop-color="#C9AD83" offset="0%"></stop>
            <stop stop-color="#F1D6A4" offset="100%"></stop>
        </radialGradient>
        <linearGradient x1="91.0621929%" y1="29.7702387%" x2="7.44881723%" y2="66.7908707%" id="linearGradient-6">
            <stop stop-color="#F1D6A4" offset="0%"></stop>
            <stop stop-color="#C9AD83" offset="100%"></stop>
        </linearGradient>
        <linearGradient x1="18.7935415%" y1="24.7768109%" x2="59.9840689%" y2="50%" id="linearGradient-7">
            <stop stop-color="#F7D39E" offset="0%"></stop>
            <stop stop-color="#C9AD83" offset="100%"></stop>
        </linearGradient>
        <linearGradient x1="85.9415745%" y1="24.2106333%" x2="38.0212913%" y2="50%" id="linearGradient-8">
            <stop stop-color="#F2D5A1" offset="0%"></stop>
            <stop stop-color="#C9AD83" offset="100%"></stop>
        </linearGradient>
    </defs>
    <g id="Symbols" stroke="none" stroke-width="1" fill="none" fill-rule="evenodd">
        <g id="Icon" transform="translate(-96.000000, -41.000000)">
            <g id="Group">
                <g id="Brownie" transform="translate(98.000000, 43.000000)">
                    <path d="" id="Path" stroke="#979797" stroke-width="1"></path>
                    <polygon id="Path-3" stroke="#333333" stroke-width="0.3" fill="url(#linearGradient-1)" fill-rule="evenodd" points="45.1048622 122.722685 40.7124287 130.468875 36.2688394 136.784531 32.9471924 143.125941 28.5989391 150.734579 19.0083664 166.989638 12.3900691 180.112623 7.99298511 193.424667 5.88222203 207.332573 4.6068119 220.395269 4.6068119 236.454243 4.6068119 244.417589 5.19245124 248.445574 5.88222203 250.653455 8.64935092 255.815919 12.3900691 260.927264 17.4440416 266.230893 23.3909175 269.434961 28.5989391 270.620244 31.5177332 270.620244 32.9471924 270.620244 39.3190112 267.05503 45.1048622 260.927264 48.651479 253.917412 50.4058945 247.935392 51.742343 241.448236 52.6759386 234.478772 54.6309086 228.282522 56.5556502 215.880447 58.3060326 204.651451 60.0033767 193.424667 61.2050258 184.109221 61.2050258 173.084041 61.2050258 164.839739 61.2050258 153.502418 61.2050258 147.63806 60.0380738 146.102003 58.3067931 143.823122 56.5175963 141.468007 54.6309086 138.984564 53.4658343 137.416986 51.742343 135.098073 48.9957686 131.095552 47.2154554 127.204476"></polygon>
                    <polyline id="Path-4" stroke="#555555" stroke-width="0.1" points="56.9480295 163.755914 51.3075078 169.886478 46.5540541 177.220681 41.2789033 186.275436 38.0837374 195.121262 36.5626236 204.558917 35.169647 215.243496 35.169647 223.090451 36.5626236 229.434107 36.5626236 238.022723 35.169647 247.790006 32.4556161 252.994951 30.5360366 258.963198 26.7696264 263.653725 22.4733064 268.668884"></polyline>
                    <polygon id="Path-5" stroke="#333333" stroke-width="0.3" fill="#FFFFFF" fill-rule="evenodd" points="37.9638671 231.051444 43.7027651 232.816947 49.4962249 234.966182 52.280571 235.689566 51.7208539 243.660361 50.7751179 249.455482 48.5579583 254.172024 46.4176836 258.172463 43.7027651 262.020051 39.7666507 266.568625 33.7378489 270.331669 30.1944251 270.649932 26.8738451 270.331669 22.1499184 268.753435 23.7877125 266.568625 27.6145169 262.020051 31.2856246 256.835437 33.7378489 250.691556 35.649583 244.849799 36.5888765 237.269706 36.5888765 231.051444"></polygon>
                    <polygon id="Path-6" stroke="#333333" stroke-width="0.3" fill="url(#linearGradient-2)" fill-rule="evenodd" points="256.219053 193.727483 256.853361 195.595355 261.857775 208.742517 264.898349 221.272508 264.898349 230.891625 264.898349 237.923669 264.898349 252.409779 261.857775 259.721507 256.513209 266.524643 250.156772 269.632794 243.767267 272.235682 235.160573 271.055351 230.601365 268.291811 226.905223 264.061597 223.374421 259.721507 221.481295 254.629768 219.784922 250.204774 219.784922 245.20543 218.183619 236.520257 215.887643 230.891625 214.433743 225.802383 212.506723 219.303902 210.187851 208.742517 208.435264 202.576993 205.303626 191.067515 206.761212 197.882866 204.407619 184.294471 204.407619 178.224545 204.407619 172.56345 204.407619 167.703115 204.407619 165.805263 204.407619 161.417426 204.407619 157.06592 204.407619 153.351292 204.407619 152.106852 208.435264 148.98789 211.760032 144.521669 215.887643 138.57648 219.784922 131.735668 223.374421 126.859024 225.603272 130.032419 228.988228 136.143681 232.070222 142.51034 235.160573 147.463886 238.224506 154.234595 241.652929 161.417426 245.587282 169.426203 248.512729 176.072851 251.162636 182.298453 253.548397 187.5 255.290247 191.067515"></polygon>
                    <polyline id="Path-7" stroke="#555555" stroke-width="0.1" points="205.925426 165.140182 214.144401 173.310105 220.456197 182.684499 225.83135 194.703401 231.715746 209.043011 235.49125 223.785498 237.736546 239.630072 239.680927 256.297881 242.929001 268.376715 244.204105 271.852334"></polyline>
                    <polygon id="Path-8" stroke="#333333" stroke-width="0.3" fill="#FFFFFF" fill-rule="evenodd" points="236.227073 232.320009 237.21408 235.69834 238.695424 244.058669 239.904854 250.899211 241.509455 257.692237 242.518695 263.619431 243.188944 267.884934 244.287718 272.209551 240.776756 272.209551 235.421808 271.413383 230.131544 267.884934 226.296778 264.204755 223.779672 259.92325 221.746717 254.717361 220.08521 249.027723 219.235172 244.058669 218.138151 237.641242 226.296778 236.425364 232.275417 234.058042 235.421808 232.320009"></polygon>
                    <polygon id="Path-9" stroke="#333333" stroke-width="0.3" fill="url(#radialGradient-3)" fill-rule="evenodd" points="45.055795 122.743297 49.2648304 132.026429 56.4713846 141.819588 60.913039 147.291412 65.2902056 152.042695 79.3728302 163.474008 93.5257213 168.439783 106.7582 171.774402 124.21284 174.20481 136.890908 174.20481 151.662298 172.84344 167.168783 170.39515 180.857607 165.734925 194.525583 158.746919 207.41059 150.050787 215.125224 139.587438 224.029754 125.504135 227.256324 117.123788 229.586665 105.994501 231.255178 94.2596599 231.255178 83.2688924 230.635833 75.6776846 228.388806 70.6475822 225.522086 63.8055465 222.657067 57.391138 219.106676 50.1800683 215.697851 44.694584 210.979877 38.8462334 205.524464 31.4960477 197.607293 24.8842728 191.536951 19.8904913 182.35487 13.2841988 173.971141 9.55787981 166.088681 6.29893542 159.075697 4.02579515 150.236642 1.80884948 144.001593 1.00910432 134.897782 1.00910432 129.077904 1.00910432 123.30839 1.80884948 117.600472 3.31411105 110.093367 5.56497906 104.195899 7.72675807 97.3472824 10.4556229 89.5182497 13.7347836 83.0429461 17.4946823 77.0352201 21.4409827 72.9039301 24.8842728 68.7369082 28.8908795 63.0613189 33.8538225 58.8844281 38.8462334 55.7519302 43.6635501 52.0599727 49.5670674 49.7373982 55.4304946 46.8768031 62.1440365 44.5593332 67.1631741 42.894226 72.9364844 41.7633959 78.1917078 40.751332 86.169971 40.751332 93.1452976 40.751332 100.112743 40.751332 106.571354 42.24935 114.780905 43.8535428 119.423471"></polygon>
                    <polygon id="Path-13" stroke="#333333" stroke-width="0.3" fill="#FFFFFF" fill-rule="evenodd" points="94.7789343 69.0379725 89.9552609 74.2362151 87.7793186 80.1100892 85.4821474 86.6082811 84.0868572 93.1220227 84.0868572 102.190569 85.4821474 111.444934 87.7793186 119.023825 91.6516929 128.869076 97.3888297 135.310511 103.851795 141.978972 112.303069 147.066034 120.793723 150.709314 131.773815 152.052802 139.591146 152.052802 150.16045 149.001964 158.411735 144.422597 168.007347 136.472069 173.817067 128.869076 178.492486 119.023825 179.723306 106.238139 179.723306 98.2852785 177.40297 89.4250973 175.778349 83.2930992 171.01722 74.2362151 166.319409 69.0379725 160.485752 62.8087893 152.931727 58.9478152 143.68513 56.0944575 131.773815 54.481183 124.237549 54.481183 114.956977 57.367195 107.511826 61.4272043 102.090502 63.8646094 98.5316241 66.388315"></polygon>
                    <path d="M111.336989,82.9573074 L114.379892,81.30966 L121.957624,78.0195938 L129.278839,76.7008888 L135.370386,76.0606413 L141.491538,75.9664966 L145.611906,76.9906074 C148.797051,79.0250376 150.48535,80.311839 150.676803,80.8510118 C151.387851,82.8534782 151.334513,85.5706371 151.247228,86.2782381 C151.124689,87.2716261 150.353805,88.8164624 148.934574,90.9127471 L146.712355,94.3814713 L141.974293,100.877739 L138.349706,104.406975 L133.747794,106.188641 L130.669738,106.186435 L126.327066,104.398359 L121.975313,102.869937 L116.20309,99.7467786 L112.124732,95.6021997 L109.387566,90.0614217 C108.844116,88.549748 108.614987,87.378859 108.700181,86.5487545 C108.785375,85.7186501 109.66431,84.521501 111.336989,82.9573074 Z" id="Path-10" stroke="#333333" stroke-width="1" fill="#333333" fill-rule="evenodd" transform="translate(129.989882, 91.077569) rotate(6.000000) translate(-129.989882, -91.077569) "></path>
                    <polyline id="Path-11" stroke="#333333" stroke-width="1" points="132.516164 106.370192 132.516164 112.888599 132.516164 118.024643 132.516164 120.559233 128.055727 123.393931 121.913207 126.22241 116.278767 127.372305 112.804054 127.372305"></polyline>
                    <polyline id="Path-12" stroke="#333333" stroke-width="1" points="132.5 120.793269 139.00035 124.402339 145.378379 125.956525 149.599769 127.221488 151.828218 127.221488"></polyline>
                    <polygon id="Path-15" fill="#000000" fill-rule="evenodd" points="175.130508 69.1981338 174.309863 70.9093516 173.972271 73.6126748 175.130508 76.765363 177.257805 79.3310526 182.004262 79.3310526 184.795615 76.765363 185.783205 73.6126748 185.783205 71.6740782 184.795615 69.1981338 183.514332 67.9798765 182.004262 67.1766814 179.877738 66.8366193 177.95011 67.1766814 176.421469 67.7289508"></polygon>
                    <polygon id="Path-15" fill="#000000" fill-rule="evenodd" points="76.2849688 70.5310678 75.1267312 74.9456088 76.2849688 78.098297 78.4122652 80.6639866 83.1587228 80.6639866 85.4136989 78.098297 86.3191249 74.9456088 86.1297267 72.6800425 86.1297267 71.0348898 84.9978759 69.4673678 83.1587228 68.5096154 81.0321986 67.8874125 78.0029735 68.5096154"></polygon>
                    <polygon id="Path-16" stroke="#555555" stroke-width="0.1" points="65.0112199 30.483645 67.7271405 33.2764953 74.8505377 41.5080733 83.8657926 51.7836671 90.8898254 60.0495724 96.3813313 66.1088308"></polygon>
                    <polyline id="Path-17" stroke="#555555" stroke-width="0.1" points="207.772376 34.5631953 194.002206 41.2215428 184.815686 48.0381661 178.177419 54.7071474 171.771434 61.9640609 166.283003 67.54405"></polyline>
                    <polyline id="Path-18" stroke="#555555" stroke-width="0.1" points="132.068656 153.257731 132.068656 158.829672 132.068656 165.704131 132.068656 171.247503 132.068656 173.82926"></polyline>
                    <polygon id="Path-14" stroke="#333333" stroke-width="0.3" fill="url(#linearGradient-4)" fill-rule="evenodd" points="19.3467527 267.384648 15.2277686 282.676094 8.25992739 301.153489 4.00406094 314.884295 0.966824976 330.129806 0.966824976 339.908442 0.966824976 343.392592 4.00406094 356.091099 10.0472155 363.143489 21.2033436 369.946932 29.2600855 372.62755 35.8725979 373.90131 42.6419989 373.90131 48.6732093 373.213939 54.9342703 371.955781 61.7604883 369.946932 67.9213624 367.660362 71.4359911 366.014304 73.5107225 364.562504 75.7544712 362.200366 78.5119424 358.60491 81.7359837 350.500304 85.2556172 341.43421 88.4346055 332.103678 90.1609071 321.678334 92.2887069 316.450529 94.9864942 311.770228 97.8342965 307.826564 92.2887069 304.225633 85.2556172 299.804781 77.8089389 295.060684 71.9606388 290.673357 63.835798 283.693141 57.6429955 279.315296 51.2438055 275.032664 45.1353629 270.927469 39.5543347 266.609781 38.9477933 267.104724 35.1721404 269.211792 29.2600855 270.541271 23.3496767 269.211792"></polygon>
                    <polygon id="Path-19" stroke="#333333" stroke-width="0.3" fill="url(#radialGradient-5)" fill-rule="evenodd" points="41.3255813 268.759407 52.5679695 276.050786 62.5697502 282.759076 74.3439844 293.104205 88.8664556 302.038633 102.505447 311.131282 110.485262 313.953253 119.909117 316.220864 133.092084 316.220864 143.18081 313.953253 151.788007 311.131282 160.858332 305.911466 175.227689 297.350686 192.179729 287.568731 209.941626 278.168495 221.554328 270.27743 228.506785 266.699233 224.914276 261.666353 222.179555 256.21327 220.212523 250.155684 219.015606 242.070764 217.568566 234.244319 215.280047 228.071972 212.366221 218.922806 210.517668 210.338726 208.408253 202.724014 206.109688 194.48387 205.159994 189.385307 204.382386 180.78541 204.382386 173.169303 204.382386 163.346568 204.382386 157.089458 204.382386 152.211577 199.49356 155.561632 194.539605 158.638562 189.384721 161.535501 183.163524 164.471159 175.86181 167.476581 170.472393 169.190677 166.846999 170.427588 158.950464 171.652639 150.566848 173.169303 139.152313 174.054256 133.092084 174.054256 126.878284 174.054256 122.861424 174.054256 117.585289 173.169303 109.573047 172.210749 99.782577 169.901918 91.5274871 167.476581 83.4237872 164.471159 76.6677016 161.015413 71.5959605 157.089458 67.4536923 153.802191 63.6069291 150.070528 61.2647132 147.76111 61.2647132 152.211577 61.2647132 157.089458 61.2647132 162.419059 61.2647132 168.491993 60.3465846 178.631869 59.4686758 191.493409 57.5811188 206.924489 55.669656 218.922806 54.0279097 227.084745 52.5679695 234.244319 51.8618993 238.33945 51.8618993 243.039434 51.1260812 247.845109 48.8708193 253.607943 46.1191226 258.38362 42.1381139 263.87566 39.485093 266.699233"></polygon>
                    <polygon id="Path-20" stroke="#333333" stroke-width="0.3" fill="url(#linearGradient-6)" fill-rule="evenodd" points="248.511446 271.882861 251.808011 288.846659 254.822171 302.111658 258.584652 315.472917 261.660348 331.61353 261.660348 341.895591 260.321157 352.412216 257.65073 356.226766 252.772084 359.708836 245.837095 363.400835 233.954115 367.79935 223.017978 371.258568 203.725016 371.865703 193.564287 367.79935 182.61749 362.146595 174.061803 352.412216 168.988389 343.648178 163.892997 329.866475 161.153551 318.911704 158.427291 307.383801 164.725548 303.608169 172.917435 298.595607 182.61749 293.032581 193.564287 286.609597 203.725016 281.187169 213.203071 275.797137 221.892535 270.062076 228.588831 266.844821 233.333413 270.062076 238.783909 271.882861 243.87924 271.882861 248.511446 270.433199"></polygon>
                    <polyline id="Path-21" stroke="#555555" stroke-width="0.1" points="130.709459 273.147512 130.709459 291.113735 130.709459 305.200813 130.709459 315.102262"></polyline>
                    <polyline id="Path-22" stroke="#555555" stroke-width="0.1" points="34.2874133 271.055251 23.2944652 286.696864 18.2748943 299.203958 13.4399311 316.932299 13.4399311 330.603358 15.2486469 336.231772"></polyline>
                    <polygon id="Path-23" stroke="#333333" stroke-width="0.3" fill="#FFFFFF" fill-rule="evenodd" points="13.5023492 365.167568 10.2780637 361.239447 8.7878171 356.883959 8.7878171 350.510332 8.7878171 346.251167 10.2780637 340.972512 13.5023492 335.766087 19.4356906 332.646427 27.8020598 332.646427 35.8608968 332.646427 45.4874095 334.468928 55.4062727 338.862603 65.0081095 344.430778 69.039088 348.874937 70.3941932 356.883959 70.3941932 361.239447 67.7977725 366.308823 61.7074781 369.086039 52.5951051 372.633579 47.3835183 373.682841 40.5857806 373.783865 33.862924 373.783865 27.8020598 372.633579 19.4356906 369.086039"></polygon>
                    <polygon id="Path-24" stroke="#333333" stroke-width="0.3" fill="#FFFFFF" fill-rule="evenodd" points="258.27317 346.464336 256.080537 338.681461 251.594851 330.86966 244.971972 326.540124 237.959035 326.540124 229.630519 328.25421 217.93919 333.799634 205.914023 341.412228 196.486282 350.581147 194.418745 354.323249 193.921564 357.119589 194.418745 359.84891 195.186624 361.686406 196.486282 364.270044 198.224185 366.983214 200.481876 370.507864 207.689067 373.0383 214.666923 373.0383 226.001333 370.507864 237.959035 366.833748 247.564734 362.780999 252.751921 359.84891 256.080537 356.006785 258.27317 349.789212"></polygon>
                    <polygon id="Path-15" fill="#000000" fill-rule="evenodd" transform="translate(33.523780, 340.607298) rotate(-83.000000) translate(-33.523780, -340.607298) " points="31.2027015 337.939087 30.5936273 341.086897 31.198203 343.334076 32.3105239 345.16234 34.7957553 345.160281 35.9779795 343.330117 36.4539321 341.082043 36.3561105 339.46691 36.3570885 338.294013 35.7653866 337.176953 34.8029807 336.494929 33.6899087 336.052257 32.1034454 336.497165"></polygon>
                    <polygon id="Path-15" fill="#000000" fill-rule="evenodd" transform="translate(229.215514, 336.563615) rotate(60.000000) translate(-229.215514, -336.563615) " points="226.886158 333.880564 226.290079 337.031176 226.902262 339.284299 228.019774 341.119753 230.501004 341.127121 231.674342 339.298471 232.140948 337.048552 232.037118 335.430424 232.033617 334.255626 231.438602 333.134506 230.475139 332.447723 229.362166 332.000108 227.77995 332.439719"></polygon>
                    <polygon id="Path-15" fill="#000000" fill-rule="evenodd" transform="translate(243.539838, 336.563615) rotate(60.000000) translate(-243.539838, -336.563615) " points="241.210483 333.880564 240.614404 337.031176 241.226586 339.284299 242.344099 341.119753 244.825328 341.127121 245.998666 339.298471 246.465272 337.048552 246.361442 335.430424 246.357941 334.255626 245.762926 333.134506 244.799463 332.447723 243.68649 332.000108 242.104275 332.439719"></polygon>
                    <polygon id="Path-15" fill="#000000" fill-rule="evenodd" transform="translate(245.330379, 356.395346) rotate(60.000000) translate(-245.330379, -356.395346) " points="243.001023 353.712295 242.404944 356.862907 243.017127 359.11603 244.134639 360.951483 246.615869 360.958852 247.789207 359.130202 248.255813 356.880283 248.151983 355.262155 248.148482 354.087357 247.553467 352.966237 246.590004 352.279454 245.477031 351.831839 243.894815 352.27145"></polygon>
                    <polygon id="Path-15" fill="#000000" fill-rule="evenodd" transform="translate(248.911460, 345.578038) rotate(60.000000) translate(-248.911460, -345.578038) " points="246.582104 342.894987 245.986025 346.045599 246.598208 348.298722 247.71572 350.134176 250.19695 350.141545 251.370288 348.312894 251.836894 346.062975 251.733064 344.444848 251.729563 343.270049 251.134548 342.148929 250.171085 341.462146 249.058112 341.014532 247.475896 341.454142"></polygon>
                    <path d="M46.0646753,353.791135 L45.4678381,354.91311 L43.0651834,355.568543 L41.6847816,356.745886 C41.7269544,357.660659 41.8180013,358.339291 41.9579225,358.781781 C42.0978436,359.224272 42.6199141,359.867667 43.5241339,360.711965 L47.7310532,364.016626 L51.5177337,364.395271 L57.6988136,363.329545 L61.5888531,360.697003 L63.0743404,358.135455 L62.0798794,356.246168 L60.9440967,355.445883 C60.4375916,354.820316 60.1597291,354.407959 60.110509,354.208814 C59.9615929,353.606295 59.8872244,353.197714 59.8874033,352.98307 C59.8875701,352.783097 59.7934359,352.280613 59.6050008,351.475617 C59.5289337,351.150658 59.0157608,350.420782 58.0654819,349.28599 L55.7525791,347.602255 L51.8631399,347.870356 L48.113038,348.959262 L46.9746855,351.354699 L46.3644987,352.723401 L46.0646753,353.791135 Z" id="Path-15" fill="#000000" fill-rule="evenodd" transform="translate(52.379561, 355.998763) rotate(-83.000000) translate(-52.379561, -355.998763) "></path>
                    <path d="M208.872148,353.982237 L208.281045,355.10413 L205.885923,355.751289 L204.839184,357.303143 C204.667549,357.968221 204.65244,358.522741 204.793859,358.966701 C204.935277,359.410662 205.458876,360.057471 206.364655,360.907127 L210.576319,364.23543 L214.356815,364.630017 L220.521016,363.586851 L224.392532,360.964473 L225.864677,358.403606 L224.864631,356.506451 L223.171149,355.49943 C223.034348,355.004243 222.940986,354.656773 222.891064,354.457021 C222.740025,353.852666 222.664162,353.442947 222.663476,353.227863 C222.662837,353.02748 222.56687,352.523585 222.375577,351.716179 C222.298356,351.390247 221.783288,350.656816 220.830373,349.515884 L218.515398,347.819425 L214.634958,348.072501 L210.896878,349.14863 C210.210557,350.060576 209.79133,350.682107 209.639195,351.013221 C209.487061,351.344336 209.329682,351.977765 209.16706,352.913508 L208.872148,353.982237 Z" id="Path-15" fill="#000000" fill-rule="evenodd" transform="translate(215.281355, 356.224721) rotate(56.000000) translate(-215.281355, -356.224721) "></path>
                    <polygon id="Path-15" fill="#000000" fill-rule="evenodd" transform="translate(20.989996, 344.213068) rotate(-83.000000) translate(-20.989996, -344.213068) " points="18.6689177 341.544856 18.0598435 344.692667 18.6644192 346.939846 19.7767401 348.768109 22.2619715 348.76605 23.4441957 346.935887 23.9201483 344.687813 23.8223267 343.072679 23.8233047 341.899782 23.2316028 340.782722 22.2691969 340.100698 21.1561249 339.658026 19.5696616 340.102934"></polygon>
                    <polygon id="Path-15" fill="#000000" fill-rule="evenodd" transform="translate(19.199455, 355.030375) rotate(-83.000000) translate(-19.199455, -355.030375) " points="16.8783771 352.362164 16.269303 355.509974 16.8738786 357.757153 17.9861996 359.585417 20.471431 359.583358 21.6536551 357.753194 22.1296078 355.50512 22.0317862 353.889987 22.0327642 352.71709 21.4410622 351.60003 20.4786564 350.918006 19.3655844 350.475334 17.7791211 350.920242"></polygon>
                    <polygon id="Path-15" fill="#000000" fill-rule="evenodd" transform="translate(26.361618, 364.044798) rotate(-83.000000) translate(-26.361618, -364.044798) " points="24.0405393 361.376587 23.4314652 364.524397 24.0360408 366.771576 25.1483618 368.59984 27.6335932 368.597781 28.8158173 366.767617 29.2917699 364.519543 29.1939484 362.90441 29.1949263 361.731513 28.6032244 360.614453 27.6408185 359.932429 26.5277465 359.489757 24.9412832 359.934665"></polygon>
                    <path d="M232.705511,269.475268 L234.253077,272.857246 L235.898838,276.453814 L236.260679,277.244565 L237.393407,279.719976 L238.670054,282.509899 L239.952706,286.449023 L241.223942,290.35309 L242.328437,294.804735 L243.523561,299.621663 L244.710452,303.649022 L245.499863,306.327651 L246.248206,308.866928 L246.769853,311.679004 L247.318222,314.635131 L247.893827,317.738086 L248.301415,319.848896 C248.442455,320.572198 248.560173,321.081051 248.654569,321.375453 C248.748964,321.669855 248.836593,322.104947 248.917455,322.680728 L249.314135,324.196844 L250.066111,326.667164 L250.788917,329.238099 L251.606387,331.056445" id="Path-25" stroke="#555555" stroke-width="0.1"></path>
                    <polygon id="Path-26" stroke="#333333" stroke-width="0.3" fill="url(#linearGradient-7)" fill-rule="evenodd" points="66.30387 30.7385337 58.8867972 38.7629284 53.0482539 47.6788872 48.3445946 57.9488454 43.7463995 69.8037101 38.3460426 64.3600438 35.0704782 59.1138032 32.6085736 53.8310965 31.1068038 46.6246063 32.6085736 38.7629284 35.0704782 32.2999545 39.6031511 27.2992515 46.4625211 25.0172908 52.0309806 25.0172908 58.8867972 27.2992515 64.0008749 29.6784549"></polygon>
                    <polygon id="Path-27" stroke="#333333" stroke-width="0.3" fill="url(#linearGradient-8)" fill-rule="evenodd" points="208.0102 35.1725698 217.622376 47.0716508 222.967137 57.9684971 226.857872 67.7373379 230.853995 76.1033823 235.646296 70.9827811 238.726771 65.0114708 240.289317 59.3639965 241.687336 51.6976951 240.289317 43.9050416 237.038738 38.5430296 232.092688 33.4908144 224.848768 30.4574262 217.622376 30.4574262 211.205134 33.4908144"></polygon>
                    <polygon id="Path-28" fill="#FFFFFF" fill-rule="evenodd" points="179.915449 69.9211003 178.676012 70.2764732 177.767945 71.5304214 177.767945 73.384136 178.828897 74.6452442 180.531256 74.3106352 181.296868 72.9607434 181.296868 71.5304214 180.888937 70.2764732"></polygon>
                    <polygon id="Path-28" fill="#FFFFFF" fill-rule="evenodd" points="80.9312877 71.4931817 79.6918509 71.8485546 78.7837838 73.1025028 78.7837838 74.9562174 79.8447361 76.2173256 81.5470952 75.8827166 82.3127064 74.5328249 82.3127064 73.1025028 81.9047755 71.8485546"></polygon>
                </g>
            </g>
        </g>
    </g>
</svg>